fd_11_states
version=1
nRows=31
nColumns=17
inDegrees=yes

# SIMM Motion File Header:
name fd_11_states
datacolumns 17
datarows 31
otherdata 1
range 0.548820 0.620141
endheader
time	/jointset/r_shoulder/r_shoulder_elev/value	/jointset/r_shoulder/r_shoulder_elev/speed	/jointset/r_elbow/r_elbow_flex/value	/jointset/r_elbow/r_elbow_flex/speed	/forceset/TRIlong/activation	/forceset/TRIlong/fiber_length	/forceset/TRIlat/activation	/forceset/TRIlat/fiber_length	/forceset/TRImed/activation	/forceset/TRImed/fiber_length	/forceset/BIClong/activation	/forceset/BIClong/fiber_length	/forceset/BICshort/activation	/forceset/BICshort/fiber_length	/forceset/BRA/activation	/forceset/BRA/fiber_length
      0.548820	      0.015982	     -0.040006	    118.952555	    -38.854249	      0.020034	      0.179228	      0.510103	      0.112513	      0.506841	      0.107580	      0.549919	      0.070382	      0.021870	      0.072911	      0.020236	      0.056631
      0.550432	      0.015918	     -0.039436	    118.888889	    -40.138671	      0.020033	      0.179208	      0.510822	      0.112492	      0.507516	      0.107560	      0.546009	      0.070437	      0.021830	      0.072959	      0.020231	      0.056657
      0.552044	      0.015854	     -0.039513	    118.823156	    -41.421695	      0.020033	      0.179187	      0.511892	      0.112470	      0.508839	      0.107538	      0.541952	      0.070494	      0.021791	      0.073009	      0.020226	      0.056683
      0.553656	      0.015790	     -0.039738	    118.755352	    -42.706477	      0.020032	      0.179165	      0.512863	      0.112447	      0.510049	      0.107515	      0.538095	      0.070553	      0.021753	      0.073061	      0.020221	      0.056710
      0.558222	      0.015610	     -0.039157	    118.552043	    -46.361525	      0.020030	      0.179100	      0.515025	      0.112380	      0.512743	      0.107447	      0.528289	      0.070728	      0.021650	      0.073217	      0.020208	      0.056791
      0.559962	      0.015542	     -0.038688	    118.470125	    -47.753507	      0.020030	      0.179073	      0.515664	      0.112353	      0.513539	      0.107420	      0.524941	      0.070798	      0.021612	      0.073281	      0.020203	      0.056824
      0.561054	      0.015500	     -0.038543	    118.417521	    -48.622857	      0.020029	      0.179056	      0.516323	      0.112336	      0.514253	      0.107403	      0.522194	      0.070842	      0.021589	      0.073322	      0.020201	      0.056845
      0.562146	      0.015458	     -0.038402	    118.363970	    -49.490655	      0.020029	      0.179039	      0.516984	      0.112318	      0.514959	      0.107385	      0.519404	      0.070888	      0.021566	      0.073363	      0.020198	      0.056866
      0.566507	      0.015294	     -0.036580	    118.140536	    -52.967297	      0.020027	      0.178967	      0.519125	      0.112244	      0.517241	      0.107310	      0.509253	      0.071081	      0.021477	      0.073538	      0.020187	      0.056957
      0.569653	      0.015182	     -0.034206	    117.969933	    -55.486727	      0.020026	      0.178912	      0.520272	      0.112188	      0.518462	      0.107254	      0.502817	      0.071228	      0.021417	      0.073672	      0.020179	      0.057026
      0.570990	      0.015137	     -0.033610	    117.895026	    -56.556501	      0.020026	      0.178887	      0.520797	      0.112163	      0.519019	      0.107229	      0.499998	      0.071293	      0.021392	      0.073731	      0.020176	      0.057056
      0.572328	      0.015092	     -0.033062	    117.818690	    -57.624759	      0.020025	      0.178863	      0.521418	      0.112138	      0.519672	      0.107204	      0.496944	      0.071359	      0.021367	      0.073791	      0.020173	      0.057087
      0.577134	      0.014937	     -0.031737	    117.532461	    -61.468739	      0.020024	      0.178770	      0.523181	      0.112043	      0.521527	      0.107109	      0.487031	      0.071606	      0.021283	      0.074018	      0.020162	      0.057203
      0.579544	      0.014861	     -0.031280	    117.382033	    -63.390826	      0.020023	      0.178721	      0.523844	      0.111994	      0.522225	      0.107060	      0.482627	      0.071736	      0.021242	      0.074137	      0.020157	      0.057264
      0.580674	      0.014825	     -0.031818	    117.309922	    -64.287920	      0.020022	      0.178698	      0.524194	      0.111970	      0.522591	      0.107036	      0.480481	      0.071798	      0.021224	      0.074194	      0.020155	      0.057294
      0.582048	      0.014781	     -0.032596	    117.220836	    -65.374952	      0.020022	      0.178669	      0.524816	      0.111941	      0.523240	      0.107006	      0.477368	      0.071875	      0.021202	      0.074265	      0.020152	      0.057330
      0.586380	      0.014635	     -0.035141	    116.930155	    -68.805313	      0.020021	      0.178575	      0.526391	      0.111845	      0.524885	      0.106910	      0.468428	      0.072127	      0.021134	      0.074497	      0.020143	      0.057449
      0.588882	      0.014546	     -0.035581	    116.755567	    -70.792518	      0.020020	      0.178518	      0.527086	      0.111787	      0.525609	      0.106853	      0.463812	      0.072278	      0.021097	      0.074637	      0.020139	      0.057520
      0.591383	      0.014455	     -0.037259	    116.576009	    -72.778393	      0.020019	      0.178461	      0.527824	      0.111728	      0.526384	      0.106793	      0.459194	      0.072433	      0.021061	      0.074781	      0.020134	      0.057594
      0.593884	      0.014361	     -0.036873	    116.391491	    -74.759832	      0.020019	      0.178400	      0.528832	      0.111667	      0.527448	      0.106732	      0.454030	      0.072594	      0.021027	      0.074930	      0.020130	      0.057669
      0.595925	      0.014286	     -0.037359	    116.237259	    -76.387581	      0.020018	      0.178351	      0.529520	      0.111616	      0.528175	      0.106681	      0.450114	      0.072728	      0.020999	      0.075054	      0.020126	      0.057733
      0.597966	      0.014211	     -0.035175	    116.079698	    -78.021989	      0.020018	      0.178299	      0.530108	      0.111563	      0.528796	      0.106629	      0.446443	      0.072865	      0.020972	      0.075181	      0.020123	      0.057797
      0.600323	      0.014132	     -0.032092	    115.893555	    -79.915704	      0.020017	      0.178239	      0.530668	      0.111502	      0.529392	      0.106567	      0.442405	      0.073027	      0.020942	      0.075331	      0.020119	      0.057874
      0.601882	      0.014084	     -0.029162	    115.768045	    -81.166350	      0.020017	      0.178198	      0.530875	      0.111460	      0.529663	      0.106525	      0.439184	      0.073136	      0.020923	      0.075433	      0.020117	      0.057925
      0.603440	      0.014041	     -0.026186	    115.640587	    -82.417990	      0.020017	      0.178157	      0.531045	      0.111418	      0.529895	      0.106483	      0.436030	      0.073247	      0.020904	      0.075536	      0.020114	      0.057978
      0.607716	      0.013947	     -0.018130	    115.280774	    -85.863798	      0.020016	      0.178040	      0.531421	      0.111300	      0.530406	      0.106365	      0.428126	      0.073562	      0.020854	      0.075828	      0.020108	      0.058126
      0.610427	      0.013903	     -0.013846	    115.045034	    -88.043186	      0.020015	      0.177963	      0.531602	      0.111222	      0.530639	      0.106287	      0.423528	      0.073767	      0.020824	      0.076020	      0.020104	      0.058223
      0.612118	      0.013881	     -0.012085	    114.895072	    -89.396199	      0.020015	      0.177914	      0.531696	      0.111173	      0.530679	      0.106238	      0.420166	      0.073898	      0.020806	      0.076142	      0.020102	      0.058285
      0.613808	      0.013862	     -0.010592	    114.742827	    -90.745714	      0.020014	      0.177865	      0.531778	      0.111123	      0.530705	      0.106188	      0.416901	      0.074032	      0.020788	      0.076266	      0.020100	      0.058348
      0.617852	      0.013824	     -0.008815	    114.369332	    -93.974857	      0.020014	      0.177744	      0.531937	      0.111000	      0.530755	      0.106065	      0.409743	      0.074360	      0.020747	      0.076571	      0.020094	      0.058502
      0.620141	      0.013804	     -0.008490	    114.152085	    -95.794768	      0.020013	      0.177672	      0.532006	      0.110929	      0.530774	      0.105993	      0.406029	      0.074550	      0.020724	      0.076749	      0.020092	      0.058592
